<svg width="25" height="24" viewBox="0 0 25 24" fill="none" xmlns="http://www.w3.org/2000/svg">
<g id="navbar / home">
<path id="Vector" d="M20.1585 9.70177L13.1585 3.57677C12.7815 3.24687 12.2185 3.24687 11.8415 3.57677L4.8415 9.70177C4.62448 9.89166 4.5 10.166 4.5 10.4543V19.0006C4.5 19.5529 4.94772 20.0006 5.5 20.0006H9.5C10.0523 20.0006 10.5 19.5529 10.5 19.0006V15.0006C10.5 14.4483 10.9477 14.0006 11.5 14.0006H13.5C14.0523 14.0006 14.5 14.4483 14.5 15.0006V19.0006C14.5 19.5529 14.9477 20.0006 15.5 20.0006H19.5C20.0523 20.0006 20.5 19.5529 20.5 19.0006V10.4543C20.5 10.166 20.3755 9.89166 20.1585 9.70177Z" stroke="#1D3068" stroke-width="2" stroke-linecap="round" stroke-linejoin="round"/>
</g>
</svg>
