<svg width="19" height="19" viewBox="0 0 19 19" fill="none" xmlns="http://www.w3.org/2000/svg">
<g id="Group 15">
<path id="Vector" d="M6.58744 9.5454C6.58744 7.93319 7.89365 6.6259 9.50539 6.6259C11.1171 6.6259 12.424 7.93319 12.424 9.5454C12.424 11.1576 11.1171 12.4649 9.50539 12.4649C7.89365 12.4649 6.58744 11.1576 6.58744 9.5454ZM5.00967 9.5454C5.00967 12.0291 7.0224 14.0424 9.50539 14.0424C11.9884 14.0424 14.0011 12.0291 14.0011 9.5454C14.0011 7.06168 11.9884 5.04837 9.50539 5.04837C7.0224 5.04837 5.00967 7.06168 5.00967 9.5454ZM13.1285 4.87006C13.1284 5.07792 13.1899 5.28113 13.3053 5.454C13.4207 5.62687 13.5847 5.76164 13.7766 5.84126C13.9686 5.92088 14.1798 5.94178 14.3837 5.90131C14.5875 5.86084 14.7747 5.76082 14.9217 5.6139C15.0687 5.46699 15.1688 5.27977 15.2095 5.07592C15.2501 4.87208 15.2294 4.66076 15.1499 4.4687C15.0705 4.27663 14.9359 4.11244 14.7631 3.9969C14.5904 3.88135 14.3873 3.81963 14.1795 3.81955H14.1791C13.9006 3.81968 13.6335 3.93038 13.4365 4.12735C13.2395 4.32432 13.1287 4.59145 13.1285 4.87006ZM5.96826 16.674C5.11466 16.6351 4.6507 16.4929 4.34237 16.3728C3.93361 16.2136 3.64195 16.024 3.33531 15.7177C3.02866 15.4114 2.83885 15.1199 2.68041 14.711C2.56022 14.4028 2.41804 13.9385 2.37923 13.0847C2.33679 12.1615 2.32831 11.8842 2.32831 9.54547C2.32831 7.20671 2.33749 6.93018 2.37923 6.00626C2.41811 5.15241 2.56134 4.68909 2.68041 4.37991C2.83955 3.97102 3.02908 3.67928 3.33531 3.37255C3.64153 3.06582 3.93291 2.87595 4.34237 2.71747C4.65056 2.59724 5.11466 2.45501 5.96826 2.4162C6.89114 2.37374 7.16837 2.36526 9.50539 2.36526C11.8424 2.36526 12.1199 2.37444 13.0436 2.4162C13.8972 2.45508 14.3604 2.59836 14.6695 2.71747C15.0782 2.87595 15.3699 3.06624 15.6765 3.37255C15.9832 3.67886 16.1723 3.97102 16.3314 4.37991C16.4516 4.68818 16.5938 5.15241 16.6326 6.00626C16.675 6.93018 16.6835 7.20671 16.6835 9.54547C16.6835 11.8842 16.675 12.1608 16.6326 13.0847C16.5937 13.9385 16.4508 14.4026 16.3314 14.711C16.1723 15.1199 15.9828 15.4116 15.6765 15.7177C15.3703 16.0237 15.0782 16.2136 14.6695 16.3728C14.3613 16.493 13.8972 16.6352 13.0436 16.674C12.1207 16.7165 11.8435 16.725 9.50539 16.725C7.16731 16.725 6.89086 16.7165 5.96826 16.674ZM5.89577 0.840635C4.96372 0.883093 4.32682 1.03092 3.77062 1.24742C3.19459 1.47099 2.70696 1.77092 2.21968 2.25758C1.73239 2.74423 1.43331 3.23277 1.20981 3.80897C0.993378 4.36568 0.84559 5.00241 0.803144 5.93473C0.759998 6.86852 0.750122 7.16706 0.750122 9.5454C0.750122 11.9237 0.759998 12.2223 0.803144 13.1561C0.84559 14.0885 0.993378 14.7251 1.20981 15.2818C1.43331 15.8577 1.73246 16.3468 2.21968 16.8332C2.70689 17.3197 3.19459 17.6192 3.77062 17.8434C4.32788 18.0599 4.96372 18.2077 5.89577 18.2502C6.82978 18.2926 7.12774 18.3032 9.50539 18.3032C11.883 18.3032 12.1815 18.2933 13.115 18.2502C14.0471 18.2077 14.6836 18.0599 15.2402 17.8434C15.8158 17.6192 16.3038 17.3199 16.7911 16.8332C17.2784 16.3466 17.5768 15.8577 17.801 15.2818C18.0174 14.7251 18.1659 14.0884 18.2076 13.1561C18.2501 12.2216 18.26 11.9237 18.26 9.5454C18.26 7.16706 18.2501 6.86852 18.2076 5.93473C18.1652 5.00234 18.0174 4.36533 17.801 3.80897C17.5768 3.23313 17.2776 2.745 16.7911 2.25758C16.3046 1.77015 15.8158 1.47099 15.2409 1.24742C14.6836 1.03092 14.0471 0.882392 13.1157 0.840635C12.1822 0.798177 11.8837 0.787598 9.50609 0.787598C7.12844 0.787598 6.82978 0.797476 5.89577 0.840635Z" fill="#737C98"/>
</g>
</svg>
