<svg width="35" height="35" viewBox="0 0 35 35" fill="none" xmlns="http://www.w3.org/2000/svg">
<g id="Social Media">
<path id="Vector" d="M9.73713 16.8806C9.73713 16.8806 16.8578 13.8815 19.3273 12.8254C20.2741 12.403 23.4845 11.0513 23.4845 11.0513C23.4845 11.0513 24.9663 10.4599 24.8428 11.8961C24.8016 12.4875 24.4723 14.5573 24.1431 16.7961C23.6491 19.9642 23.1141 23.428 23.1141 23.428C23.1141 23.428 23.0317 24.3995 22.332 24.5685C21.6323 24.7375 20.4798 23.9772 20.2741 23.8081C20.1094 23.6815 17.187 21.7806 16.1169 20.8512C15.8288 20.5978 15.4995 20.091 16.158 19.4995C17.6398 18.1056 19.4097 16.3737 20.4798 15.2754C20.9738 14.7685 21.4676 13.5858 19.4097 15.0219C16.4873 17.0918 13.6062 19.0349 13.6062 19.0349C13.6062 19.0349 12.9476 19.4573 11.7128 19.0771C10.478 18.697 9.03737 18.1901 9.03737 18.1901C9.03737 18.1901 8.04959 17.5564 9.73713 16.8806Z" fill="#737C98"/>
</g>
</svg>
