<svg width="35" height="35" viewBox="0 0 35 35" fill="none" xmlns="http://www.w3.org/2000/svg">
<g id="Group 143">
<path id="Vector" d="M23.2726 12.7522C23.1565 12.6922 23.0435 12.6264 22.934 12.5551C22.6155 12.3446 22.3235 12.0965 22.0642 11.8162C21.4156 11.074 21.1733 10.3211 21.0841 9.79391H21.0877C21.0131 9.35635 21.044 9.07324 21.0486 9.07324H18.0943V20.4972C18.0943 20.6506 18.0943 20.8022 18.0878 20.952C18.0878 20.9706 18.086 20.9878 18.085 21.0079C18.085 21.0161 18.085 21.0247 18.0832 21.0333C18.0832 21.0354 18.0832 21.0376 18.0832 21.0398C18.052 21.4496 17.9206 21.8456 17.7005 22.1928C17.4805 22.54 17.1784 22.8278 16.821 23.0308C16.4485 23.2427 16.0272 23.3539 15.5986 23.3534C14.2222 23.3534 13.1066 22.231 13.1066 20.8448C13.1066 19.4586 14.2222 18.3362 15.5986 18.3362C15.8592 18.336 16.1181 18.377 16.3659 18.4577L16.3695 15.4496C15.6174 15.3525 14.8533 15.4122 14.1255 15.6252C13.3977 15.8381 12.7219 16.1995 12.1408 16.6867C11.6316 17.1291 11.2035 17.657 10.8758 18.2467C10.751 18.4617 10.2805 19.3257 10.2235 20.728C10.1877 21.5239 10.4267 22.3485 10.5407 22.6893V22.6965C10.6124 22.8972 10.8901 23.582 11.3427 24.1593C11.7077 24.6224 12.1389 25.0292 12.6224 25.3666V25.3595L12.6296 25.3666C14.0598 26.3385 15.6456 26.2747 15.6456 26.2747C15.9201 26.2636 16.8396 26.2747 17.8839 25.7798C19.0421 25.2312 19.7015 24.4138 19.7015 24.4138C20.1228 23.9253 20.4578 23.3687 20.6921 22.7678C20.9594 22.065 21.0486 21.2222 21.0486 20.8853V14.8246C21.0845 14.8461 21.5618 15.1619 21.5618 15.1619C21.5618 15.1619 22.2495 15.6026 23.3224 15.8897C24.0922 16.094 25.1293 16.137 25.1293 16.137V13.2041C24.7659 13.2435 24.0281 13.1289 23.2726 12.7522Z" fill="#737C98"/>
</g>
</svg>
