<svg width="19" height="15" viewBox="0 0 19 15" fill="none" xmlns="http://www.w3.org/2000/svg">
<g id="Capa 2">
<g id="ELEMENTS">
<path id="Vector" d="M18.187 1.95917C17.6091 2.2081 17.0015 2.38144 16.3793 2.4749C16.6702 2.42499 17.0982 1.90094 17.2686 1.68882C17.5275 1.36886 17.7247 1.0036 17.8504 0.611591C17.8504 0.582477 17.8795 0.540885 17.8504 0.520089C17.8357 0.51208 17.8193 0.507883 17.8026 0.507883C17.7859 0.507883 17.7695 0.51208 17.7548 0.520089C17.0792 0.886273 16.3602 1.16575 15.6147 1.35193C15.5887 1.35987 15.5611 1.36058 15.5347 1.35399C15.5084 1.34739 15.4843 1.33374 15.4651 1.31449C15.4071 1.24534 15.3446 1.18004 15.2781 1.11901C14.9741 0.846355 14.6291 0.623199 14.2559 0.457701C13.752 0.250814 13.2078 0.161216 12.6643 0.195673C12.137 0.229008 11.6221 0.370582 11.1517 0.611591C10.6886 0.865685 10.2815 1.21088 9.95496 1.62643C9.6115 2.05414 9.36353 2.55051 9.22775 3.08215C9.11577 3.58784 9.10307 4.1105 9.19035 4.62104C9.19035 4.70839 9.19035 4.72086 9.11555 4.70839C6.15268 4.27167 3.72172 3.2194 1.7354 0.960962C1.64814 0.861142 1.60242 0.861142 1.53178 0.960962C0.66744 2.27526 1.08714 4.35486 2.16757 5.38217C2.31301 5.51943 2.46261 5.65252 2.62052 5.7773C2.12515 5.7421 1.64188 5.60773 1.19934 5.38217C1.11623 5.3281 1.07052 5.35722 1.06637 5.45704C1.05459 5.59543 1.05459 5.73457 1.06637 5.87296C1.15307 6.53618 1.41421 7.16445 1.82308 7.69353C2.23195 8.22261 2.77387 8.6335 3.39344 8.8842C3.54447 8.94895 3.70185 8.99774 3.86301 9.02978C3.40442 9.12014 2.93408 9.13419 2.47092 9.07137C2.37119 9.05057 2.33379 9.10464 2.37119 9.2003C2.98205 10.864 4.30765 11.3714 5.28003 11.6542C5.41301 11.675 5.54598 11.675 5.69558 11.7083C5.69558 11.7083 5.69558 11.7083 5.67065 11.7332C5.38392 12.2573 4.22454 12.6108 3.69264 12.7938C2.72178 13.1429 1.68666 13.2763 0.659129 13.1848C0.497065 13.1598 0.459666 13.164 0.418111 13.1848C0.376556 13.2056 0.418111 13.2513 0.463821 13.2929C0.671596 13.4302 0.87937 13.5508 1.09546 13.6673C1.73874 14.0184 2.41883 14.2974 3.12333 14.4991C6.77185 15.5056 10.8775 14.7653 13.6159 12.041C15.7685 9.9032 16.5248 6.95434 16.5248 4.00132C16.5248 3.88903 16.6619 3.82248 16.7409 3.76425C17.2854 3.33955 17.7656 2.838 18.1662 2.27526C18.2356 2.19138 18.2712 2.08458 18.2659 1.9758C18.2659 1.91342 18.2659 1.92589 18.187 1.95917Z" fill="#737C98"/>
</g>
</g>
</svg>
