<svg width="20" height="20" viewBox="0 0 20 20" fill="none" xmlns="http://www.w3.org/2000/svg">
<g clip-path="url(#clip0_23_277)">
<mask id="mask0_23_277" style="mask-type:alpha" maskUnits="userSpaceOnUse" x="0" y="0" width="20" height="20">
<circle cx="10" cy="10" r="10" fill="#D9D9D9"/>
</mask>
<g mask="url(#mask0_23_277)">
<g clip-path="url(#clip1_23_277)">
<path d="M24.9991 1.53821V3.0764H10.1993V1.53821H24.9991ZM24.9991 4.61459V6.15278H10.1993V4.61459H24.9991ZM24.9991 7.69097V9.22916H10.1993V7.69097H24.9991ZM24.9991 10.7673V12.3055H-4.99915V10.7673H24.9991ZM24.9991 13.8437V15.3819H-4.99915V13.8437H24.9991ZM24.9991 16.9201V18.4583H-4.99915V16.9201H24.9991Z" fill="#F4F4F5"/>
<path d="M-4.99915 0L24.9991 0V1.53819H-4.99915V0ZM-4.99915 18.4618H24.9991V20H-4.99915V18.4618ZM-4.99915 15.3854H24.9991V16.9236H-4.99915V15.3854ZM-4.99915 12.309H24.9991V13.8472H-4.99915V12.309ZM-4.99915 9.23267H24.9991V10.7709H-4.99915V9.23267ZM-4.99915 6.15629H24.9991V7.69448H-4.99915V6.15629ZM-4.99915 3.07991H24.9991V4.6181H-4.99915V3.07991Z" fill="#F90805"/>
<path d="M-4.99915 0L10.1993 0V10.7673H-4.99915V0Z" fill="#0437A0"/>
<path d="M8.93277 0.532703L9.07036 0.959586H9.51841L9.15503 1.22065L9.29262 1.64754L8.92924 1.38294L8.56586 1.64754L8.70698 1.22065L8.3436 0.959586H8.79165L8.92924 0.532703H8.93277ZM-3.73261 4.82623L-3.59502 5.25311H-3.14697L-3.51035 5.51418L-3.37276 5.94106L-3.73614 5.67647L-4.09952 5.94106L-3.9584 5.51418L-4.32178 5.25311H-3.87373L-3.73614 4.82623H-3.73261ZM-2.46607 5.89873L-2.32848 6.32561H-1.88043L-2.24381 6.58668L-2.10622 7.01356L-2.46607 6.74897L-2.82945 7.01356L-2.69186 6.58668L-3.05524 6.32561H-2.60719L-2.4696 5.89873H-2.46607ZM7.66623 5.89873L7.80382 6.32561H8.25187L7.88849 6.58668L8.02608 7.01356L7.6627 6.74897L7.29932 7.01356L7.43691 6.58668L7.07353 6.32561H7.52158L7.65917 5.89873H7.66623ZM5.13315 5.89873L5.27074 6.32561H5.71879L5.35542 6.58668L5.49301 7.01356L5.12963 6.74897L4.76625 7.01356L4.90736 6.58668L4.54398 6.32561H4.99203L5.12963 5.89873H5.13315ZM2.60008 5.89873L2.73767 6.32561H3.18572L2.82234 6.58668L2.95993 7.01356L2.59655 6.74897L2.23317 7.01356L2.37429 6.58668L2.01091 6.32561H2.45896L2.59655 5.89873H2.60008ZM0.0670037 5.90226L0.204595 6.32914H0.652646L0.289265 6.59021L0.426856 7.01709L0.0634761 6.7525L-0.299904 7.01709L-0.162313 6.59021L-0.525693 6.32914H-0.0705862L0.0670037 5.90226ZM-1.19953 4.82976L-1.06194 5.25664H-0.613892L-0.977272 5.51771L-0.839682 5.94459L-1.19953 5.68L-1.56291 5.94459L-1.4218 5.51771L-1.78517 5.25664H-1.33712L-1.19953 4.82976ZM6.39969 4.82976L6.53728 5.25664H6.98533L6.62195 5.51771L6.75954 5.94459L6.39969 5.68L6.03631 5.94459L6.17743 5.51771L5.81405 5.25664H6.2621L6.39969 4.82976ZM8.93277 4.82976L9.07036 5.25664H9.51841L9.15503 5.51771L9.29262 5.94459L8.92924 5.68L8.56586 5.94459L8.70698 5.51771L8.3436 5.25664H8.79165L8.92924 4.82976H8.93277ZM8.93277 6.97829L9.07036 7.40517H9.51841L9.15503 7.66624L9.29262 8.09312L8.92924 7.82852L8.56586 8.09312L8.70698 7.66624L8.3436 7.40517H8.79165L8.92924 6.98181L8.93277 6.97829ZM6.39969 6.97829L6.53728 7.40517H6.98533L6.62195 7.66624L6.75954 8.09312L6.39969 7.82852L6.03631 8.09312L6.17743 7.66624L5.81405 7.40517H6.2621L6.39969 6.98181V6.97829ZM-1.19953 6.97829L-1.06194 7.40517H-0.613892L-0.977272 7.66624L-0.839682 8.09312L-1.19953 7.82852L-1.56291 8.09312L-1.4218 7.66624L-1.78517 7.40517H-1.33712L-1.19953 6.98181V6.97829ZM-2.46607 8.05078L-2.32848 8.47767H-1.88043L-2.24381 8.73874L-2.10622 9.16562L-2.46607 8.90102L-2.82945 9.16562L-2.69186 8.73874L-3.05524 8.47767H-2.60719L-2.4696 8.05078H-2.46607ZM7.66623 8.05078L7.80382 8.47767H8.25187L7.88849 8.73874L8.02608 9.16562L7.6627 8.90102L7.29932 9.16562L7.43691 8.73874L7.07353 8.47767H7.52158L7.65917 8.05078H7.66623ZM5.13315 8.05078L5.27074 8.47767H5.71879L5.35542 8.73874L5.49301 9.16562L5.12963 8.90102L4.76625 9.16562L4.90736 8.73874L4.54398 8.47767H4.99203L5.12963 8.05078H5.13315ZM2.60008 8.05078L2.73767 8.47767H3.18572L2.82234 8.73874L2.95993 9.16562L2.59655 8.90102L2.23317 9.16562L2.37429 8.73874L2.01091 8.47767H2.45896L2.59655 8.05078H2.60008ZM0.0670037 8.04726L0.204595 8.47414H0.652646L0.289265 8.73521L0.426856 9.16209L0.0634761 8.89749L-0.299904 9.16209L-0.162313 8.73521L-0.525693 8.47414H-0.0705862L0.0670037 8.04726ZM-3.73261 6.97476L-3.59502 7.40164H-3.14697L-3.51035 7.66271L-3.37276 8.08959L-3.73614 7.825L-4.09952 8.08959L-3.9584 7.66271L-4.32178 7.40164H-3.87373L-3.73614 6.97829L-3.73261 6.97476ZM-3.73261 9.11976L-3.59502 9.54664H-3.14697L-3.51035 9.80771L-3.37276 10.2346L-3.73614 9.96999L-4.09952 10.2346L-3.9584 9.80771L-4.32178 9.54311H-3.87373L-3.73614 9.11623L-3.73261 9.11976ZM-1.19953 9.11976L-1.06194 9.54664H-0.613892L-0.977272 9.80771L-0.839682 10.2346L-1.19953 9.96999L-1.56291 10.2346L-1.4218 9.80771L-1.78517 9.54311H-1.33712L-1.19953 9.11623V9.11976ZM6.39969 9.11976L6.53728 9.54664H6.98533L6.62195 9.80771L6.75954 10.2346L6.39969 9.96999L6.03631 10.2346L6.17743 9.80771L5.81405 9.54311H6.2621L6.39969 9.11623V9.11976ZM8.93277 9.11976L9.07036 9.54664H9.51841L9.15503 9.80771L9.29262 10.2346L8.92924 9.96999L8.56586 10.2346L8.70698 9.80771L8.3436 9.54311H8.79165L8.92924 9.11623L8.93277 9.11976ZM-2.46607 3.75373L-2.32848 4.18061H-1.88043L-2.24381 4.44168L-2.10622 4.86857L-2.46607 4.60397L-2.82945 4.86857L-2.69186 4.44168L-3.05524 4.18061H-2.60719L-2.4696 3.75373H-2.46607ZM-2.46607 1.60873L-2.32848 2.03561H-1.88043L-2.24381 2.29668L-2.10622 2.72004L-2.46607 2.45544L-2.82945 2.72004L-2.69186 2.29668L-3.05524 2.03209H-2.60719L-2.4696 1.60873H-2.46607ZM7.66623 1.60873L7.80382 2.03561H8.25187L7.88849 2.29668L8.02608 2.72004L7.6627 2.45544L7.29932 2.72004L7.43691 2.29668L7.07353 2.03209H7.52158L7.65917 1.60873H7.66623ZM5.13315 1.60873L5.27074 2.03561H5.71879L5.35542 2.29668L5.49301 2.72004L5.12963 2.45544L4.76625 2.72004L4.90736 2.29668L4.54398 2.03209H4.99203L5.12963 1.60873H5.13315ZM2.60008 1.60873L2.73767 2.03561H3.18572L2.82234 2.29668L2.95993 2.72004L2.59655 2.45544L2.23317 2.72004L2.37429 2.29668L2.01091 2.03209H2.45896L2.59655 1.60873H2.60008ZM0.0670037 1.6052L0.204595 2.03209H0.652646L0.289265 2.29315L0.426856 2.71651L0.0670037 2.45544L-0.296376 2.72004L-0.158785 2.29668L-0.522165 2.03209H-0.0705862L0.0670037 1.60873V1.6052ZM-3.73261 2.6777L-3.59502 3.10459H-3.14697L-3.51035 3.36565L-3.37276 3.79254L-3.73614 3.52794L-4.09952 3.79254L-3.9584 3.36565L-4.32178 3.10459H-3.87373L-3.73614 2.6777H-3.73261ZM7.66976 3.7502L7.80735 4.17709H8.2554L7.89202 4.43815L8.02961 4.86504L7.66623 4.60044L7.30285 4.86504L7.44044 4.43815L7.07706 4.17709H7.52511L7.6627 3.7502H7.66976ZM5.13668 3.7502L5.27427 4.17709H5.72232L5.35894 4.43815L5.49653 4.86504L5.13315 4.60044L4.76977 4.86504L4.91089 4.43815L4.54751 4.17709H4.99556L5.13315 3.7502H5.13668ZM2.60361 3.7502L2.7412 4.17709H3.18925L2.82587 4.43815L2.96346 4.86504L2.60008 4.60044L2.2367 4.86504L2.37782 4.43815L2.01444 4.17709H2.46249L2.60008 3.7502H2.60361ZM0.0670037 3.75373L0.204595 4.18061H0.652646L0.289265 4.44168L0.426856 4.86857L0.0634761 4.60397L-0.299904 4.86857L-0.162313 4.44168L-0.525693 4.18061H-0.0705862L0.0670037 3.75373ZM-1.19953 2.68123L-1.06194 3.10811H-0.613892L-0.977272 3.36918L-0.839682 3.79607L-1.19953 3.53147L-1.56291 3.79607L-1.4218 3.36918L-1.78517 3.10811H-1.33712L-1.19953 2.68123ZM-1.19953 0.532703L-1.06194 0.959586H-0.613892L-0.977272 1.22065L-0.839682 1.64754L-1.19953 1.38294L-1.56291 1.64754L-1.4218 1.22065L-1.78517 0.959586H-1.33712L-1.19953 0.532703ZM-3.73261 0.532703L-3.59502 0.959586H-3.14697L-3.51035 1.22065L-3.37276 1.64754L-3.73614 1.38294L-4.09952 1.64754L-3.9584 1.22065L-4.32178 0.959586H-3.87373L-3.73614 0.532703H-3.73261ZM1.33354 9.11976L1.47113 9.54664H1.91918L1.5558 9.80771L1.69339 10.2346L1.33001 9.96999L0.966633 10.2346L1.10422 9.80771L0.740844 9.54311H1.1889L1.32649 9.11623L1.33354 9.11976ZM1.33354 6.97476L1.47113 7.40164H1.91918L1.5558 7.66271L1.69339 8.08959L1.33001 7.825L0.966633 8.08959L1.10422 7.66271L0.740844 7.40164H1.1889L1.32649 6.97829L1.33354 6.97476ZM1.33354 4.82623L1.47113 5.25311H1.91918L1.5558 5.51418L1.69339 5.94106L1.33001 5.67647L0.966633 5.94106L1.10422 5.51418L0.740844 5.25311H1.1889L1.32649 4.82623H1.33354ZM1.33354 2.6777L1.47113 3.10459H1.91918L1.5558 3.36565L1.69339 3.79254L1.33001 3.52794L0.966633 3.79254L1.10422 3.36565L0.740844 3.10459H1.1889L1.32649 2.6777H1.33354ZM1.33354 0.532703L1.47113 0.959586H1.91918L1.5558 1.22065L1.69339 1.64754L1.33001 1.38294L0.966633 1.64754L1.10422 1.22065L0.740844 0.959586H1.1889L1.32649 0.532703H1.33354ZM3.86662 9.11976L4.00421 9.54664H4.45226L4.08888 9.80771L4.23 10.2346L3.86662 9.96999L3.50676 10.2346L3.64435 9.80771L3.28097 9.54311H3.72903L3.86662 9.11623V9.11976ZM3.86662 6.97476L4.00421 7.40164H4.45226L4.08888 7.66271L4.23 8.08959L3.86662 7.825L3.50676 8.08959L3.64435 7.66271L3.28097 7.40164H3.72903L3.86662 6.97829V6.97476ZM3.86662 4.82623L4.00421 5.25311H4.45226L4.08888 5.51418L4.23 5.94106L3.86662 5.67647L3.50676 5.94106L3.64435 5.51418L3.28097 5.25311H3.72903L3.86662 4.82623ZM3.86662 2.6777L4.00421 3.10459H4.45226L4.08888 3.36565L4.23 3.79254L3.86662 3.52794L3.50676 3.79254L3.64435 3.36565L3.28097 3.10459H3.72903L3.86662 2.6777ZM3.86662 0.529175L4.00421 0.956058H4.45226L4.08888 1.21713L4.23 1.64401L3.86662 1.37941L3.50676 1.64401L3.64435 1.21713L3.28097 0.956058H3.72903L3.86662 0.529175ZM6.39969 2.6777L6.53728 3.10459H6.98533L6.62195 3.36565L6.75954 3.79254L6.39969 3.52794L6.03631 3.79254L6.17743 3.36565L5.81405 3.10459H6.2621L6.39969 2.6777ZM6.39969 0.529175L6.53728 0.956058H6.98533L6.62195 1.21713L6.75954 1.64401L6.39969 1.37941L6.03631 1.64401L6.17743 1.21713L5.81405 0.956058H6.2621L6.39969 0.529175ZM8.93277 2.6777L9.07036 3.10459H9.51841L9.15503 3.36565L9.29262 3.79254L8.92924 3.52794L8.56586 3.79254L8.70698 3.36565L8.3436 3.10459H8.79165L8.92924 2.6777H8.93277Z" fill="#F4F4F5"/>
</g>
</g>
</g>
<defs>
<clipPath id="clip0_23_277">
<rect width="20" height="20" fill="white"/>
</clipPath>
<clipPath id="clip1_23_277">
<rect width="20" height="20" fill="white"/>
</clipPath>
</defs>
</svg>
