<svg width="35" height="35" viewBox="0 0 35 35" fill="none" xmlns="http://www.w3.org/2000/svg">
<g id="Group 141">
<path id="Vector" d="M27.1787 12.5078C26.9493 11.6477 26.2727 10.9711 25.4127 10.7379C23.8607 10.3213 17.6223 10.3213 17.6223 10.3213C17.6223 10.3213 11.3877 10.3213 9.82807 10.7379C8.96799 10.9673 8.2914 11.6439 8.06205 12.5078C7.64539 14.0674 7.64539 17.3204 7.64539 17.3204C7.64539 17.3204 7.64539 20.5772 8.06205 22.133C8.2914 22.9931 8.96799 23.6697 9.82807 23.9029C11.3877 24.3195 17.6223 24.3195 17.6223 24.3195C17.6223 24.3195 23.8607 24.3195 25.4165 23.9029C26.2727 23.6735 26.9493 22.9969 27.1825 22.133C27.5992 20.5734 27.5992 17.3204 27.5992 17.3204C27.5992 17.3204 27.5992 14.0636 27.1825 12.5078H27.1787ZM15.6269 20.3211V14.3197L20.8103 17.3204L15.6269 20.3211Z" fill="#737C98"/>
</g>
</svg>
